<?xml version="1.0" encoding="UTF-8"?>
<!DOCTYPE svg PUBLIC "-//W3C//DTD SVG 1.1//EN" "http://www.w3.org/Graphics/SVG/1.1/DTD/svg11.dtd">
<!-- Creator: CorelDRAW 2021 (64-Bit) -->
<svg xmlns="http://www.w3.org/2000/svg" xml:space="preserve" width="5.56211in" height="3.50013in" version="1.1" style="shape-rendering:geometricPrecision; text-rendering:geometricPrecision; image-rendering:optimizeQuality; fill-rule:evenodd; clip-rule:evenodd"
viewBox="0 0 5539.2 3485.72"
 xmlns:xlink="http://www.w3.org/1999/xlink"
 xmlns:xodm="http://www.corel.com/coreldraw/odm/2003">
 <defs>
  <style type="text/css">
   <![CDATA[
    .fil4 {fill:#A3C7E9}
    .fil6 {fill:#41689F}
    .fil5 {fill:#1C64F2}
    .fil3 {fill:#FEFEFE;fill-rule:nonzero}
    .fil8 {fill:#C8DFF3;fill-rule:nonzero}
    .fil7 {fill:#A3C7E9;fill-rule:nonzero}
    .fil0 {fill:#3DB76D;fill-rule:nonzero}
    .fil1 {fill:#00B164;fill-rule:nonzero}
    .fil9 {fill:#1C64F2;fill-rule:nonzero}
    .fil2 {fill:#1C64F2;fill-rule:nonzero}
   ]]>
  </style>
 </defs>
 <g id="Layer_x0020_1">
  <metadata id="CorelCorpID_0Corel-Layer"/>
  <g id="_1878150744800">
   <path class="fil0" d="M3705.43 3359.74c-7.46,-24.4 -24.55,-47.22 -48.84,-55.05 -24.27,-7.81 -55.08,4.03 -62.64,28.38 -22.34,-18.64 -56.57,-3.83 -74.51,19.07 -29.03,37.04 -6.6,97.71 -1.76,101.65 5.24,4.25 19.42,3.5 19.42,3.5l217.23 -1.2c0,0 39.85,-2.91 58.24,-10.24 37,-14.76 62.17,-78.44 38.36,-110.39 -16.23,-21.77 -48.27,-26.39 -74.14,-18.12 -25.88,8.26 -50.99,24.44 -71.36,42.4z"/>
   <path class="fil1" d="M3570.09 3331.78c-1.32,0 -2.69,0.07 -4.07,0.22 -14.37,1.52 -30.46,11.17 -40.94,24.56 -25.48,32.5 -6.45,86.77 -2.28,92.23 0.97,0.71 8.13,1.66 13.91,1.33l217.57 -1.22c-0.1,-0.02 38.48,-2.89 55.62,-9.74 17.26,-6.86 33.35,-27.41 40.04,-51.11 5.47,-19.31 3.72,-36.92 -4.76,-48.32 -15.19,-20.39 -45,-22.36 -66.23,-15.57 -22.58,7.22 -47.01,21.76 -68.79,40.94 -1.83,1.62 -4.34,2.19 -6.7,1.52 -2.35,-0.67 -4.19,-2.47 -4.91,-4.8 -7.66,-25.08 -24.18,-43.87 -44.16,-50.32 -11.29,-3.64 -24.61,-2.39 -35.58,3.32 -9,4.67 -15.4,11.91 -18.02,20.36 -0.72,2.28 -2.52,4.07 -4.83,4.76 -2.29,0.67 -4.78,0.17 -6.63,-1.38 -5.41,-4.51 -11.87,-6.79 -19.27,-6.79zm-36.09 132.76c-5.5,0 -15.33,-0.71 -20.85,-5.19 -8.52,-6.93 -30.17,-72.34 0.62,-111.64 12.97,-16.54 32.41,-28.03 50.75,-29.97 9.57,-1.09 18.49,0.59 26.27,4.65 4.66,-8.38 12.04,-15.41 21.42,-20.29 14.29,-7.43 31.7,-9.03 46.59,-4.23 21.59,6.96 39.71,25.19 49.88,49.74 21.15,-17.15 44.26,-30.18 65.91,-37.09 25.95,-8.3 62.69,-5.34 82.09,20.68 11.16,14.98 13.76,37.14 7.08,60.76 -7.98,28.22 -27.03,51.98 -48.54,60.56 -19.2,7.66 -58.7,10.61 -60.39,10.73l-217.7 1.22c-0.72,0.04 -1.8,0.08 -3.14,0.08z"/>
   <path class="fil1" d="M3476.99 3351.51c-6.21,12.1 -8.88,25.23 -7.4,38.78 0.73,6.81 11.51,6.87 10.75,0 -1.27,-11.7 0.55,-22.87 5.95,-33.36 3.15,-6.14 -6.13,-11.59 -9.3,-5.42l0 0z"/>
   <path class="fil1" d="M3445.61 3360.13c-3.39,12.17 -3.64,24.33 -0.93,36.65 1.48,6.77 11.86,3.9 10.37,-2.86 -2.3,-10.44 -1.94,-20.64 0.93,-30.93 1.85,-6.68 -8.52,-9.53 -10.37,-2.86l0 0z"/>
   <path class="fil1" d="M3505.95 3338.3c6.92,0 6.93,-10.76 0,-10.76 -6.93,0 -6.94,10.76 0,10.76l0 0z"/>
   <path class="fil1" d="M3536.43 3390.31c0,3.18 0,6.38 0,9.56 0,6.92 10.76,6.93 10.76,0 0,-3.18 0,-6.38 0,-9.56 0,-6.93 -10.76,-6.94 -10.76,0l0 0z"/>
   <path class="fil1" d="M3718.13 3407.03c0,1.6 0,3.19 0,4.78 0,6.93 10.76,6.94 10.76,0 0,-1.59 0,-3.18 0,-4.78 0,-6.92 -10.76,-6.93 -10.76,0l0 0z"/>
   <path class="fil1" d="M3698.19 3394.11c0.8,0.79 1.59,1.59 2.4,2.38 4.89,4.91 12.5,-2.7 7.61,-7.61 -0.8,-0.79 -1.59,-1.59 -2.39,-2.38 -4.9,-4.91 -12.51,2.7 -7.61,7.61l0 0z"/>
   <path class="fil2" d="M641.15 3156.97l-364.18 0c-7.92,0 -14.35,-6.42 -14.35,-14.34 0,-7.94 6.43,-14.35 14.35,-14.35l364.18 0c7.92,0 14.35,6.41 14.35,14.35 0,7.92 -6.43,14.34 -14.35,14.34z"/>
   <path class="fil3" d="M3847.92 1893.96l-10.4 0c0,-8.6 -7,-15.6 -15.6,-15.6 -8.59,0 -15.59,7 -15.59,15.6l-10.4 0c0,-14.34 11.66,-26 25.99,-26 14.35,0 26.01,11.66 26.01,26z"/>
   <path class="fil3" d="M3885.12 1288.33l-10.4 0c0,-8.61 -7,-15.6 -15.6,-15.6 -8.6,0 -15.6,7 -15.6,15.6l-10.4 0c0,-14.35 11.66,-26.01 26,-26.01 14.33,0 26,11.66 26,26.01z"/>
   <path class="fil2" d="M2138.13 3364.17l413.58 0c-15.93,-60.21 -26.76,-147.24 -28.91,-197.2l-358.6 1.11c3.4,66.78 -0.69,127.53 -26.07,196.09zm452.26 28.69l-494.97 0 8.39 -19.92c32.46,-77 35.81,-142.92 30.87,-218.22l-1 -15.24 417.32 -1.27 0.1 14.27c0.36,48.68 13.53,159.23 33.35,221.7l5.94 18.69z"/>
   <path class="fil2" d="M1256.14 1727.71c-32.52,0 -59.59,25.44 -62.04,58.35 -18.19,245.51 -4.12,690.68 6.14,1015.72 3.43,108.07 6.38,201.4 7.59,270.02 0.36,19.96 33.71,57.17 59.46,66.35 46.13,9.42 2082.91,2.46 2135.86,-7.5 64.9,-12.81 67.82,-76.79 70.64,-138.69 0.65,-14.33 1.29,-28.16 2.7,-40.71 34.44,-303.95 24.21,-626.34 14.31,-938.09 -2.36,-74.71 -4.7,-148.43 -6.38,-220.56 -0.78,-34 -27.52,-61.07 -60.89,-61.68l-2166.37 -3.22c-0.33,0 -0.69,0 -1.04,0zm696.96 1438.98c-375.78,0 -680.19,-2.05 -693.55,-6.82 -32.16,-11.47 -74.21,-56.03 -74.77,-87.65 -1.22,-68.48 -4.16,-161.72 -7.57,-269.72 -10.29,-325.56 -24.38,-771.43 -6.1,-1018.16 3.32,-44.95 40.46,-79.68 84.85,-79.68 0.48,0 0.95,0 1.44,0l2166.47 3.22c45.82,0.79 82.56,37.77 83.63,84.18 1.66,72.08 4.01,145.73 6.36,220.39 9.93,312.55 20.18,635.77 -14.44,941.42 -1.37,12.06 -1.96,25.37 -2.59,39.15 -2.92,64.12 -6.54,143.95 -89.2,160.25 -40.42,7.97 -842.19,13.42 -1454.52,13.42z"/>
   <path class="fil4" d="M3363.25 1782.46l-2041.22 -2.68c-36.71,-0.55 -67.53,24.62 -70.28,57.51 -22.88,273.2 8.3,843.23 12.92,1072.64 0.44,22.36 36.95,55.89 63.24,64.19 30.94,9.78 1970.74,2.39 2018.15,-5.88 85.14,-14.87 70.64,-102.07 77.79,-157.86 40.39,-315.54 15.58,-658.52 7.54,-967.15 -0.87,-33.42 -30.93,-60.22 -68.14,-60.78z"/>
   <path class="fil2" d="M1918.13 3388.98c-22.31,0 -28.27,18.66 -28.27,29.7 0,11.03 5.96,29.64 28.27,29.64l849.32 0c22.32,0 28.28,-18.67 28.28,-29.71 0,-11.01 -5.96,-29.63 -28.28,-29.63l-849.32 0zm849.32 82.41l-849.32 0c-33.71,0 -51.33,-26.51 -51.33,-52.71 0,-26.21 17.62,-52.77 51.33,-52.77l849.32 0c33.71,0 51.34,26.52 51.34,52.7 0,26.23 -17.64,52.78 -51.34,52.78z"/>
   <path class="fil5" d="M1326.65 3056.68c-5.01,0 -5.01,0 0,0z"/>
   <path class="fil2" d="M1326.65 3086.33c38.15,0 38.22,-59.27 0,-59.27 -38.13,0 -38.2,59.27 0,59.27l0 0z"/>
   <path class="fil5" d="M1446.16 3056.68c-5.02,0 -5.02,0 0,0z"/>
   <path class="fil2" d="M1446.16 3086.33c38.15,0 38.22,-59.27 0,-59.27 -38.13,0 -38.2,59.27 0,59.27l0 0z"/>
   <path class="fil5" d="M1565.66 3056.68c-5.02,0 -5.02,0 0,0z"/>
   <path class="fil2" d="M1565.66 3086.33c38.15,0 38.2,-59.27 0,-59.27 -38.13,0 -38.2,59.27 0,59.27l0 0z"/>
   <path class="fil6" d="M2342.79 1750.92c-2.35,0 -2.35,0 0,0z"/>
   <path class="fil2" d="M2342.79 1764.83c17.9,0 17.93,-27.8 0,-27.8 -17.88,0 -17.91,27.8 0,27.8l0 0z"/>
   <polygon class="fil7" points="4738.08,3415.05 4445.41,3415.05 4557.98,3045.36 4625.52,3045.36 "/>
   <polygon class="fil7" points="4421.24,3457.28 4762.25,3457.28 4762.25,3415.05 4421.24,3415.05 "/>
   <polygon class="fil2" points="4473.56,3322.63 4445.41,3415.05 4738.08,3415.05 4709.93,3322.63 "/>
   <polygon class="fil2" points="4501.7,3230.2 4681.8,3230.2 4653.65,3137.78 4529.84,3137.78 "/>
   <path class="fil7" d="M4858.76 3023.66l71.43 0 -40.24 158.83 -71.43 0 40.24 -158.83zm177.46 158.83l-71.44 0 40.24 -158.83 71.44 0 -40.24 158.83zm146.26 0l-71.43 0 40.24 -158.83 71.43 0 -40.24 158.83zm186.3 -158.83l0 0.84 -40.03 157.99 -71.43 0 40.24 -158.83 71.22 0zm-511.02 431.24l64.94 0 0 -251.44 333.34 0 0 251.44 64.94 0 0 -251.44 68.77 0 0 -200.77 -54.86 0 0 -18.55 -94.62 0 0 18.55 -295.32 0 0 -18.55 -94.62 0 0 18.55 -60.22 0 0 200.77 67.65 0 0 251.44z"/>
   <path class="fil7" d="M1549.4 943.61c-44.47,0 -80.5,-36.07 -80.5,-80.49 0,-44.45 36.03,-80.47 80.5,-80.47 44.44,0 80.49,36.02 80.49,80.47 0,44.41 -36.05,80.49 -80.49,80.49zm114.29 53.28l19.46 -19.46c3.96,-3.93 3.96,-10.34 0,-14.29l-16.96 -16.92c-3.9,-3.96 -4.94,-11.12 -2.25,-15.99l13.81 -33.53c1.55,-5.37 7.41,-9.72 12.96,-9.72l23.98 0c5.58,0 10.1,-4.54 10.1,-10.06l0 -27.58c0,-5.59 -4.52,-10.07 -10.1,-10.07l-23.98 0c-5.54,0 -11.41,-4.36 -12.96,-9.7l-13.81 -33.51c-2.68,-4.88 -1.65,-12.07 2.25,-16.03l16.96 -16.92c3.96,-3.96 3.96,-10.36 0,-14.23l-19.46 -19.55c-3.94,-3.92 -10.34,-3.92 -14.26,0l-16.97 16.95c-3.94,3.94 -11.11,4.96 -15.96,2.34l-33.57 -13.83c-5.32,-1.59 -9.68,-7.38 -9.68,-12.97l0 -23.98c0,-5.53 -4.52,-10.11 -10.08,-10.11l-27.53 0c-5.59,0 -10.11,4.58 -10.11,10.11l0 23.98c0,5.59 -4.36,11.39 -9.68,12.97l-33.57 13.83c-4.85,2.63 -12.06,1.6 -15.96,-2.34l-16.98 -16.91c-3.9,-3.96 -10.3,-3.96 -14.21,0l-19.53 19.51c-3.94,3.87 -3.94,10.28 0,14.23l16.94 16.92c3.93,3.96 4.98,11.15 2.3,16.03l-13.81 33.51c-1.56,5.34 -7.43,9.7 -12.96,9.7l-24.01 0c-5.54,0 -10.08,4.48 -10.08,10.07l0 27.58c0,5.52 4.54,10.06 10.08,10.06l24.01 0c5.53,0 11.4,4.36 12.96,9.72l13.81 33.53c2.68,4.9 1.63,12.03 -2.3,15.99l-16.94 16.92c-3.94,3.95 -3.94,10.36 0,14.29l19.53 19.46c3.9,3.97 10.3,3.97 14.21,0l16.98 -16.93c3.9,-3.93 11.11,-4.95 15.99,-2.27l33.54 13.8c5.32,1.54 9.68,7.39 9.68,12.93l0 24.04c0,5.52 4.52,10.07 10.11,10.07l27.53 0c5.56,0 10.08,-4.55 10.08,-10.07l0 -24.04c0,-5.55 4.36,-11.4 9.68,-12.93l33.57 -13.8c4.85,-2.69 12.02,-1.66 15.96,2.27l16.97 16.93c3.92,3.97 10.32,3.97 14.26,0z"/>
   <path class="fil7" d="M1787.27 1119.76c-12.99,24.3 -43.29,33.44 -67.51,20.43 -24.29,-13.02 -33.42,-43.27 -20.43,-67.5 13.01,-24.34 43.31,-33.46 67.55,-20.45 24.23,13.04 33.39,43.27 20.39,67.52zm62.53 -46.81l-4.91 -16.34c-1.01,-3.32 -4.51,-5.19 -7.8,-4.2l-14.19 4.31c-3.31,1.01 -7.57,-0.55 -9.45,-3.47l-14.29 -17.33c-2.41,-2.4 -3.1,-6.88 -1.47,-9.92l7 -13.08c1.65,-3.07 0.49,-6.86 -2.5,-8.49l-15.06 -8.05c-3.03,-1.65 -6.82,-0.46 -8.45,2.57l-7.04 13.08c-1.62,3.02 -5.73,4.94 -9.07,4.25l-22.38 -2.25c-3.42,0.02 -7.08,-2.62 -8.05,-5.95l-4.31 -14.22c-0.98,-3.28 -4.47,-5.18 -7.77,-4.14l-16.35 4.88c-3.34,1.04 -5.16,4.51 -4.19,7.84l4.34 14.18c1,3.34 -0.58,7.53 -3.5,9.42l-17.36 14.31c-2.36,2.45 -6.87,3.07 -9.89,1.47l-13.11 -7.03c-3,-1.63 -6.83,-0.51 -8.44,2.56l-8.09 15c-1.59,3.07 -0.49,6.88 2.56,8.48l13.1 7.07c3.06,1.62 4.95,5.69 4.25,9.05l-2.23 22.35c0,3.46 -2.64,7.12 -5.96,8.07l-14.22 4.33c-3.32,0.98 -5.2,4.51 -4.18,7.79l4.94 16.32c0.98,3.33 4.5,5.18 7.82,4.18l14.22 -4.29c3.28,-0.98 7.5,0.6 9.38,3.44l14.29 17.37c2.43,2.41 3.1,6.89 1.49,9.93l-7.03 13.09c-1.6,3.02 -0.47,6.8 2.57,8.48l15.02 8.04c3.03,1.62 6.83,0.47 8.46,-2.54l7.06 -13.12c1.59,-3.07 5.71,-4.94 9.06,-4.26l22.34 2.27c3.49,0 7.09,2.64 8.09,5.98l4.29 14.18c1,3.32 4.52,5.21 7.8,4.18l16.33 -4.94c3.29,-0.98 5.17,-4.51 4.22,-7.76l-4.32 -14.22c-1.01,-3.28 0.53,-7.57 3.4,-9.42l17.37 -14.29c2.39,-2.43 6.9,-3.11 9.93,-1.51l13.08 7.03c3.04,1.67 6.89,0.5 8.48,-2.55l8.06 -15.05c1.65,-2.99 0.46,-6.83 -2.58,-8.46l-13.1 -7.04c-3.04,-1.65 -4.95,-5.69 -4.22,-9.01l2.27 -22.43c-0.04,-3.4 2.66,-7.07 5.92,-8.05l14.23 -4.3c3.27,-1 5.15,-4.48 4.14,-7.79z"/>
   <path class="fil2" d="M2664.32 1388.03l-450.91 0c-7.92,0 -14.34,-6.42 -14.34,-14.34 0,-7.92 6.42,-14.34 14.34,-14.34l450.91 0c7.91,0 14.34,6.42 14.34,14.34 0,7.92 -6.43,14.34 -14.34,14.34z"/>
   <path class="fil2" d="M1746.34 1592.87l-728.33 0c-7.92,0 -14.36,-6.42 -14.36,-14.34 0,-7.93 6.43,-14.34 14.36,-14.34l728.33 0c7.93,0 14.35,6.41 14.35,14.34 0,7.92 -6.42,14.34 -14.35,14.34z"/>
   <path class="fil2" d="M5238.52 1980.7l-728.33 0c-7.92,0 -14.34,-6.42 -14.34,-14.35 0,-7.92 6.42,-14.34 14.34,-14.34l728.33 0c7.93,0 14.35,6.42 14.35,14.34 0,7.93 -6.42,14.35 -14.35,14.35z"/>
   <path class="fil2" d="M5524.85 3485.72l-5510.52 0c-7.92,0 -14.34,-6.4 -14.34,-14.34 0,-7.93 6.42,-14.35 14.34,-14.35l5510.52 0c7.92,0 14.34,6.42 14.34,14.35 0,7.94 -6.42,14.34 -14.34,14.34z"/>
   <path class="fil7" d="M3503.53 1404.9c-44.83,0 -81.33,-36.48 -81.33,-81.33 0,-44.84 36.51,-81.34 81.36,-81.34l0 0c44.84,0 81.33,36.49 81.33,81.34 0,44.86 -36.5,81.33 -81.36,81.33zm-0.02 -197.02c-30.88,0 -59.93,12.03 -81.77,33.88 -37.26,37.26 -44.66,94.98 -18.02,140.36l1.91 3.21 -117.13 117.13c-0.15,0.16 -5.69,5.52 -5.77,13.32 -0.05,5.88 2.92,11.87 8.84,17.79 6.29,6.28 12.89,9.48 19.59,9.48 8.03,0 13.73,-4.66 13.77,-4.69l116.84 -116.89 3.24 1.93c17.67,10.37 37.93,15.85 58.55,15.85 30.9,0 59.93,-12.02 81.79,-33.85 45.09,-45.12 45.09,-118.51 0,-163.63 -21.85,-21.84 -50.92,-33.88 -81.83,-33.88z"/>
   <polygon class="fil7" points="3460.66,1340.48 3544.44,1340.48 3544.44,1319.04 3460.66,1319.04 "/>
   <path class="fil2" d="M1355.3 3459.15c-7.92,0 -14.36,-6.42 -14.36,-14.34l0 -1104.78c0,-7.91 6.43,-14.35 14.36,-14.35 7.91,0 14.34,6.43 14.34,14.35l0 1104.78c0,7.92 -6.43,14.34 -14.34,14.34z"/>
   <path class="fil2" d="M1612.03 3459.15c-7.92,0 -14.34,-6.42 -14.34,-14.34l0 -1104.78c0,-7.91 6.42,-14.35 14.34,-14.35 7.93,0 14.35,6.43 14.35,14.35l0 1104.78c0,7.92 -6.42,14.34 -14.35,14.34z"/>
   <path class="fil2" d="M1612.03 2429.88l-256.73 0c-7.92,0 -14.36,-6.43 -14.36,-14.34 0,-7.93 6.43,-14.34 14.36,-14.34l256.73 0c7.93,0 14.35,6.41 14.35,14.34 0,7.91 -6.42,14.34 -14.35,14.34z"/>
   <path class="fil2" d="M1612.03 2556.09l-256.73 0c-7.92,0 -14.36,-6.42 -14.36,-14.34 0,-7.93 6.43,-14.35 14.36,-14.35l256.73 0c7.93,0 14.35,6.42 14.35,14.35 0,7.92 -6.42,14.34 -14.35,14.34z"/>
   <path class="fil2" d="M1612.03 2682.3l-256.73 0c-7.92,0 -14.36,-6.42 -14.36,-14.34 0,-7.93 6.43,-14.35 14.36,-14.35l256.73 0c7.93,0 14.35,6.42 14.35,14.35 0,7.92 -6.42,14.34 -14.35,14.34z"/>
   <path class="fil2" d="M1612.03 2808.52l-256.73 0c-7.92,0 -14.36,-6.42 -14.36,-14.34 0,-7.93 6.43,-14.35 14.36,-14.35l256.73 0c7.93,0 14.35,6.42 14.35,14.35 0,7.92 -6.42,14.34 -14.35,14.34z"/>
   <path class="fil2" d="M1612.03 2934.73l-256.73 0c-7.92,0 -14.36,-6.42 -14.36,-14.34 0,-7.93 6.43,-14.35 14.36,-14.35l256.73 0c7.93,0 14.35,6.42 14.35,14.35 0,7.92 -6.42,14.34 -14.35,14.34z"/>
   <path class="fil2" d="M1612.03 3060.95l-256.73 0c-7.92,0 -14.36,-6.42 -14.36,-14.34 0,-7.93 6.43,-14.35 14.36,-14.35l256.73 0c7.93,0 14.35,6.42 14.35,14.35 0,7.92 -6.42,14.34 -14.35,14.34z"/>
   <path class="fil2" d="M1612.03 3187.16l-256.73 0c-7.92,0 -14.36,-6.42 -14.36,-14.34 0,-7.93 6.43,-14.35 14.36,-14.35l256.73 0c7.93,0 14.35,6.42 14.35,14.35 0,7.92 -6.42,14.34 -14.35,14.34z"/>
   <path class="fil2" d="M1612.03 3313.36l-256.73 0c-7.92,0 -14.36,-6.41 -14.36,-14.34 0,-7.92 6.43,-14.34 14.36,-14.34l256.73 0c7.93,0 14.35,6.42 14.35,14.34 0,7.93 -6.42,14.34 -14.35,14.34z"/>
   <path class="fil2" d="M1005.63 2393.62c-7.91,0 -14.34,-6.43 -14.34,-14.34l0 -55.86c0,-7.92 6.43,-14.34 14.34,-14.34 7.92,0 14.34,6.42 14.34,14.34l0 55.86c0,7.91 -6.42,14.34 -14.34,14.34z"/>
   <path class="fil2" d="M1033.56 2365.7l-55.84 0c-7.93,0 -14.34,-6.43 -14.34,-14.34 0,-7.92 6.41,-14.34 14.34,-14.34l55.84 0c7.92,0 14.34,6.42 14.34,14.34 0,7.91 -6.42,14.34 -14.34,14.34z"/>
   <path class="fil2" d="M2295.67 395.84c-7.92,0 -14.34,-6.43 -14.34,-14.36l0 -55.84c0,-7.92 6.42,-14.36 14.34,-14.36 7.93,0 14.34,6.43 14.34,14.36l0 55.84c0,7.92 -6.41,14.36 -14.34,14.36z"/>
   <path class="fil2" d="M2323.6 367.91l-55.84 0c-7.92,0 -14.34,-6.43 -14.34,-14.36 0,-7.91 6.42,-14.34 14.34,-14.34l55.84 0c7.92,0 14.34,6.43 14.34,14.34 0,7.93 -6.42,14.36 -14.34,14.36z"/>
   <path class="fil2" d="M2747.88 3287.55c-1.3,0 -2.63,-0.18 -3.94,-0.56l-53.71 -15.32c-7.62,-2.19 -12.04,-10.11 -9.85,-17.73 2.17,-7.62 10.12,-11.95 17.72,-9.86l53.71 15.33c7.62,2.18 12.03,10.11 9.85,17.73 -1.78,6.31 -7.54,10.42 -13.78,10.42z"/>
   <path class="fil2" d="M2713.36 3306.74c-1.3,0 -2.63,-0.18 -3.94,-0.54 -7.62,-2.18 -12.04,-10.11 -9.86,-17.73l15.34 -53.71c2.18,-7.62 10.12,-11.95 17.73,-9.86 7.62,2.18 12.03,10.11 9.85,17.73l-15.34 53.71c-1.8,6.3 -7.54,10.4 -13.78,10.4z"/>
   <path class="fil2" d="M2465.72 1600.55c-1.3,0 -2.62,-0.18 -3.94,-0.55l-53.7 -15.34c-7.62,-2.17 -12.03,-10.13 -9.86,-17.73 2.19,-7.62 10.1,-12.03 17.73,-9.85l53.71 15.34c7.61,2.16 12.02,10.11 9.85,17.72 -1.8,6.3 -7.54,10.41 -13.79,10.41z"/>
   <path class="fil2" d="M2431.21 1619.73c-1.3,0 -2.63,-0.18 -3.94,-0.57 -7.62,-2.17 -12.03,-10.11 -9.86,-17.73l15.34 -53.7c2.17,-7.62 10.1,-12.03 17.73,-9.85 7.61,2.17 12.03,10.11 9.85,17.72l-15.33 53.71c-1.81,6.29 -7.55,10.41 -13.79,10.41z"/>
   <path class="fil7" d="M2627.37 1071.9c0,110.06 -89.21,199.27 -199.27,199.27 -110.06,0 -199.27,-89.21 -199.27,-199.27 0,-110.06 89.22,-199.27 199.27,-199.27 110.06,0 199.27,89.21 199.27,199.27z"/>
   <path class="fil3" d="M2577.38 1071.9c0,82.44 -66.83,149.27 -149.28,149.27 -82.43,0 -149.27,-66.83 -149.27,-149.27 0,-82.45 66.84,-149.28 149.27,-149.28 82.45,0 149.28,66.83 149.28,149.28z"/>
   <path class="fil2" d="M2428.1 928.4c-79.13,0 -143.5,64.37 -143.5,143.5 0,79.13 64.38,143.5 143.5,143.5 79.13,0 143.5,-64.37 143.5,-143.5 0,-79.13 -64.37,-143.5 -143.5,-143.5zm0 298.56c-85.49,0 -155.05,-69.56 -155.05,-155.06 0,-85.49 69.56,-155.05 155.05,-155.05 85.49,0 155.05,69.56 155.05,155.05 0,85.5 -69.56,155.06 -155.05,155.06z"/>
   <path class="fil2" d="M2428.1 1077.67c-3.18,0 -5.77,-2.59 -5.77,-5.77l0 -76c0,-3.2 2.59,-5.78 5.77,-5.78 3.2,0 5.78,2.58 5.78,5.78l0 76c0,3.18 -2.59,5.77 -5.78,5.77z"/>
   <path class="fil2" d="M2517.14 1077.67l-89.05 0c-3.18,0 -5.77,-2.59 -5.77,-5.77 0,-3.19 2.59,-5.78 5.77,-5.78l89.05 0c3.2,0 5.78,2.59 5.78,5.78 0,3.18 -2.59,5.77 -5.78,5.77z"/>
   <path class="fil2" d="M2433.99 939.47c0,3.25 -2.63,5.89 -5.89,5.89 -3.25,0 -5.89,-2.64 -5.89,-5.89 0,-3.25 2.64,-5.89 5.89,-5.89 3.27,0 5.89,2.64 5.89,5.89z"/>
   <path class="fil2" d="M2525.9 982.42c-2.3,2.31 -6.03,2.31 -8.33,0 -2.31,-2.29 -2.31,-6.03 0,-8.32 2.3,-2.31 6.03,-2.31 8.33,0 2.31,2.29 2.31,6.03 0,8.32z"/>
   <path class="fil2" d="M2560.52 1077.79c-3.25,0 -5.89,-2.64 -5.89,-5.89 0,-3.26 2.64,-5.89 5.89,-5.89 3.27,0 5.89,2.63 5.89,5.89 0,3.25 -2.63,5.89 -5.89,5.89z"/>
   <path class="fil2" d="M2517.57 1169.7c-2.31,-2.29 -2.31,-6.03 0,-8.34 2.3,-2.3 6.03,-2.3 8.33,0 2.31,2.31 2.31,6.05 0,8.34 -2.3,2.3 -6.03,2.3 -8.33,0z"/>
   <path class="fil2" d="M2422.2 1204.32c0,-3.26 2.64,-5.89 5.89,-5.89 3.27,0 5.89,2.63 5.89,5.89 0,3.25 -2.63,5.89 -5.89,5.89 -3.25,0 -5.89,-2.64 -5.89,-5.89z"/>
   <path class="fil2" d="M2330.29 1161.36c2.31,-2.3 6.03,-2.3 8.34,0 2.3,2.31 2.3,6.05 0,8.34 -2.31,2.3 -6.03,2.3 -8.34,0 -2.29,-2.29 -2.29,-6.03 0,-8.34z"/>
   <path class="fil2" d="M2295.67 1066.01c3.27,0 5.89,2.63 5.89,5.89 0,3.25 -2.63,5.89 -5.89,5.89 -3.25,0 -5.89,-2.64 -5.89,-5.89 0,-3.26 2.64,-5.89 5.89,-5.89z"/>
   <path class="fil2" d="M2338.63 974.1c2.3,2.29 2.3,6.03 0,8.32 -2.31,2.31 -6.03,2.31 -8.34,0 -2.29,-2.29 -2.29,-6.03 0,-8.32 2.31,-2.31 6.03,-2.31 8.34,0z"/>
   <path class="fil2" d="M2719.59 995.8l-83.67 0c-3.2,0 -5.78,-2.59 -5.78,-5.77 0,-3.2 2.59,-5.78 5.78,-5.78l83.67 0c3.2,0 5.78,2.59 5.78,5.78 0,3.18 -2.59,5.77 -5.78,5.77z"/>
   <path class="fil2" d="M2719.59 1159.55l-83.67 0c-3.2,0 -5.78,-2.59 -5.78,-5.78 0,-3.2 2.59,-5.77 5.78,-5.77l83.67 0c3.2,0 5.78,2.57 5.78,5.77 0,3.2 -2.59,5.78 -5.78,5.78z"/>
   <path class="fil2" d="M2823.61 1077.7l-156.28 0c-3.2,0 -5.78,-2.58 -5.78,-5.77 0,-3.19 2.59,-5.78 5.78,-5.78l156.28 0c3.2,0 5.78,2.59 5.78,5.78 0,3.2 -2.59,5.77 -5.78,5.77z"/>
   <polygon class="fil3" points="3003.89,3322.63 3096.32,3322.63 3096.32,3230.2 3003.89,3230.2 "/>
   <path class="fil2" d="M3011.05 3315.45l78.08 0 0 -78.08 -78.08 0 0 78.08zm92.42 14.34l-106.77 0 0 -106.77 106.77 0 0 106.77z"/>
   <path class="fil2" d="M3213.29 3250.52l-83.67 0c-3.19,0 -5.78,-2.59 -5.78,-5.78 0,-3.2 2.59,-5.77 5.78,-5.77l83.67 0c3.2,0 5.77,2.57 5.77,5.77 0,3.2 -2.57,5.78 -5.77,5.78z"/>
   <path class="fil2" d="M3244.73 3313.86l-113.08 0c-4.32,0 -7.81,-2.58 -7.81,-5.78 0,-3.2 3.5,-5.77 7.81,-5.77l113.08 0c4.31,0 7.8,2.57 7.8,5.77 0,3.2 -3.49,5.78 -7.8,5.78z"/>
   <path class="fil2" d="M3285.91 3280.4l-156.29 0c-3.19,0 -5.78,-2.57 -5.78,-5.77 0,-3.2 2.59,-5.78 5.78,-5.78l156.29 0c3.2,0 5.78,2.59 5.78,5.78 0,3.2 -2.58,5.77 -5.78,5.77z"/>
   <polygon class="fil3" points="974.45,1966.35 1066.88,1966.35 1066.88,1873.93 974.45,1873.93 "/>
   <path class="fil2" d="M981.62 1959.19l78.08 0 0 -78.08 -78.08 0 0 78.08zm92.42 14.34l-106.77 0 0 -106.77 106.77 0 0 106.77z"/>
   <path class="fil2" d="M857.48 1894.25l83.67 0c3.18,0 5.77,-2.59 5.77,-5.77 0,-3.2 -2.59,-5.78 -5.77,-5.78l-83.67 0c-3.2,0 -5.78,2.59 -5.78,5.78 0,3.18 2.59,5.77 5.78,5.77z"/>
   <path class="fil2" d="M826.04 1957.58l113.08 0c4.32,0 7.8,-2.58 7.8,-5.77 0,-3.2 -3.49,-5.78 -7.8,-5.78l-113.08 0c-4.31,0 -7.8,2.59 -7.8,5.78 0,3.19 3.49,5.77 7.8,5.77z"/>
   <path class="fil2" d="M784.86 1924.14l156.28 0c3.2,0 5.77,-2.58 5.77,-5.77 0,-3.2 -2.58,-5.78 -5.77,-5.78l-156.28 0c-3.2,0 -5.78,2.58 -5.78,5.78 0,3.18 2.59,5.77 5.78,5.77z"/>
   <polygon class="fil2" points="3793.23,3454.9 3821.91,3454.9 3821.91,2221.22 3793.23,2221.22 "/>
   <path class="fil7" d="M3810.72 2370.5l-6.3 0c-46.81,0 -85.11,-38.3 -85.11,-85.1l0 -113.99c0,-46.81 38.3,-85.11 85.11,-85.11l6.3 0c46.82,0 85.12,38.3 85.12,85.11l0 113.99c0,46.81 -38.3,85.1 -85.12,85.1z"/>
   <path class="fil2" d="M3923.11 2287.95c10.08,1.62 20.18,3.23 30.26,4.87 6.78,1.08 9.7,-9.28 2.87,-10.37 -10.08,-1.63 -20.18,-3.25 -30.28,-4.87 -6.76,-1.09 -9.68,9.28 -2.85,10.37l0 0z"/>
   <path class="fil2" d="M3922.05 2222.21c7.91,-1.41 15.8,-1.59 23.78,-0.83 6.88,0.65 6.85,-10.11 0,-10.76 -8.99,-0.84 -17.76,-0.36 -26.63,1.22 -6.82,1.2 -3.93,11.56 2.85,10.37l0 0z"/>
   <path class="fil2" d="M3918.77 2162.32c7.73,-3.07 15.48,-6.14 23.21,-9.21 6.36,-2.52 3.58,-12.93 -2.86,-10.37 -7.73,3.07 -15.48,6.14 -23.21,9.21 -6.36,2.52 -3.58,12.93 2.86,10.37l0 0z"/>
   <path class="fil2" d="M3654.99 2297.96c7.94,-1.11 15.63,-2.93 23.21,-5.53 6.51,-2.24 3.72,-12.63 -2.87,-10.37 -7.58,2.6 -15.27,4.43 -23.21,5.53 -6.83,0.94 -3.93,11.3 2.86,10.37l0 0z"/>
   <path class="fil2" d="M3641.02 2221.49c9.97,0.27 19.6,1.76 29.2,4.47 6.67,1.88 9.52,-8.5 2.85,-10.37 -10.48,-2.96 -21.16,-4.55 -32.05,-4.85 -6.92,-0.19 -6.92,10.57 0,10.76l0 0z"/>
   <path class="fil2" d="M3650.41 2132.98c7.75,2.48 15.49,4.95 23.24,7.41 6.61,2.12 9.45,-8.27 2.86,-10.37 -7.74,-2.46 -15.49,-4.94 -23.23,-7.41 -6.61,-2.11 -9.45,8.28 -2.87,10.37l0 0z"/>
   <polygon class="fil2" points="3740.64,3471.62 3759.75,3306.74 3852.99,3306.74 3874.51,3469.24 "/>
   <path class="fil0" d="M1107.97 2682.18c-4.23,-26.21 -22.81,-93.86 -63.67,-72.45 -66.12,34.66 13.64,166.26 -66.03,189.45 -4.26,-52.45 -15.53,-88.59 -39.21,-86.43 -48.84,4.43 -35.87,118.05 -36.66,143.61 -0.8,25.48 -2.07,51.58 -3.22,77.94 -57.47,10.3 -46.11,-139.59 -81.07,-160.33 -54.35,-32.23 -65.89,39.6 -64.4,72.8 2.54,56.46 17.73,124.03 70.76,154.02 17.51,9.89 48.33,21.05 72.34,19.03 -0.26,45.16 1.67,90.03 9.13,132.87 0.08,0.45 0.84,0.45 0.93,0 0.01,-0.03 0.01,-0.07 0.01,-0.1l32.2 1.73c-0.02,0.19 -0.03,0.4 -0.03,0.6 -0.31,14.16 21.81,14.18 22,0 0.39,-27.25 17.14,-161.04 19.15,-274.41 25.71,3.83 58.04,-8.13 76.55,-21.71 54.87,-40.25 61.3,-114.3 51.22,-176.62z"/>
   <path class="fil1" d="M911.13 3146.7l34.23 1.85 -0.18 5.95c-0.09,2.83 0.94,3.72 1.71,4.18 1.69,1.01 4.18,1.02 5.95,0.03 1.42,-0.77 2.09,-2.02 2.12,-3.87 0.12,-9.34 2.06,-30.05 4.73,-58.69 5.2,-55.93 13.07,-140.46 14.4,-215.75l0.12 -6.96 6.89 1.02c23.74,3.54 54.83,-7.97 72.04,-20.58 59.44,-43.6 56.09,-125.67 48.81,-170.72l0 0c-3.2,-19.74 -14.34,-59.64 -33.68,-69.31 -6.42,-3.22 -13.33,-2.8 -21.13,1.29 -28.16,14.77 -26.57,50.37 -24.9,88.05 1.84,41.44 3.93,88.41 -42.26,101.87l-7.19 2.09 -0.61 -7.47c-4.25,-52.27 -14.28,-70.94 -21.94,-77.38 -3.24,-2.74 -6.61,-3.84 -10.64,-3.47 -35.48,3.21 -32.77,81.87 -31.45,119.67 0.26,7.69 0.47,13.99 0.35,18.05 -0.62,19.95 -1.54,40.31 -2.46,60.85l-0.98 22.06 -4.8 0.85c-39.34,7.04 -50.4,-45.9 -60.18,-92.66 -6.29,-30.06 -12.81,-61.15 -25.08,-68.43 -13.32,-7.88 -24.33,-9.35 -32.73,-4.32 -18.22,10.93 -23.44,49.71 -22.46,71.58 2.34,51.83 15.96,119.73 67.68,148.97 17.84,10.08 47.01,20.06 68.81,18.27l6.65 -0.55 -0.04 6.67c-0.28,50.42 2.34,90.9 8.21,126.85zm38.74 24.95c-3.25,0 -6.48,-0.83 -9.28,-2.52 -3.44,-2.07 -5.85,-5.23 -6.96,-9l-23.74 -1.27 -8.65 0.29 -1.31 -5.42c-6.35,-36.38 -9.29,-77.06 -9.25,-127.56 -26.42,-0.01 -55.4,-12.27 -69.21,-20.07 -56.57,-31.99 -71.39,-104.15 -73.86,-159.05 -0.98,-22.09 3.67,-67.77 28.38,-82.6 12.54,-7.51 27.77,-6.07 45.23,4.29 16.9,10.01 23.33,40.79 30.8,76.42 10.08,48.25 19.17,83 41.29,83.53l0.53 -11.84c0.93,-20.49 1.84,-40.78 2.45,-60.67 0.13,-3.9 -0.08,-9.9 -0.35,-17.26 -1.54,-44.72 -4.41,-128 42.56,-132.24 7.26,-0.69 13.86,1.44 19.61,6.28 13.1,11.02 21.48,36.51 25.53,77.79 29.67,-13.24 28.14,-47.62 26.39,-87.01 -1.77,-39.84 -3.61,-81.03 31.43,-99.4 11.39,-5.95 22.24,-6.45 32.27,-1.41 29.2,14.6 39.21,71.81 40.26,78.29l0 0c7.73,47.79 11.04,135.07 -53.64,182.52 -18.02,13.22 -48.41,24.84 -74.18,23.49 -1.67,74.03 -9.25,155.57 -14.33,210.05 -2.54,27.32 -4.55,48.87 -4.67,57.73 -0.1,6.24 -3.16,11.46 -8.4,14.39 -2.74,1.52 -5.82,2.27 -8.91,2.27z"/>
   <path class="fil2" d="M1044.72 3457.54l-233.52 0c-12.46,0 -22.41,-8.15 -24.76,-20.26l-53.02 -272.17 21.99 -4.3 53.03 272.18c0.4,2.13 2.17,2.13 2.75,2.13l233.52 0c0.58,0 2.35,0 2.75,-2.11l52.61 -272.18 22 4.25 -52.6 272.19c-2.34,12.13 -12.28,20.28 -24.76,20.28z"/>
   <path class="fil7" d="M735.79 3077.53l387.62 0c6.6,0 12.01,7.29 12.01,16.24l0 58.93c0,8.95 -5.41,16.25 -12.01,16.25l-387.62 0c-6.59,0 -12.01,-7.3 -12.01,-16.25l0 -58.93c0,-8.95 5.41,-16.24 12.01,-16.24z"/>
   <path class="fil2" d="M735.79 3083.63c-2.78,0 -5.9,4.34 -5.9,10.14l0 58.94c0,5.79 3.12,10.13 5.9,10.13l387.61 0c2.8,0 5.92,-4.33 5.92,-10.13l0 -58.94c0,-5.79 -3.12,-10.14 -5.92,-10.14l-387.61 0zm387.61 91.41l-387.61 0c-9.99,0 -18.1,-10.03 -18.1,-22.34l0 -58.94c0,-12.32 8.12,-22.35 18.1,-22.35l387.61 0c10,0 18.12,10.03 18.12,22.35l0 58.94c0,12.31 -8.12,22.34 -18.12,22.34z"/>
   <path class="fil7" d="M735.79 3082.64c-3.26,0 -6.9,4.56 -6.9,11.13l0 58.93c0,6.57 3.64,11.15 6.9,11.15l387.61 0c3.28,0 6.92,-4.58 6.92,-11.15l0 -58.93c0,-6.57 -3.63,-11.13 -6.92,-11.13l-387.61 0zm387.61 91.41l-387.61 0c-9.43,0 -17.11,-9.57 -17.11,-21.36l0 -58.93c0,-11.77 7.68,-21.34 17.11,-21.34l387.61 0c9.45,0 17.13,9.57 17.13,21.34l0 58.93c0,11.78 -7.68,21.36 -17.13,21.36z"/>
   <path class="fil2" d="M736.49 3088.73c-0.55,0.61 -1.51,2.33 -1.51,5.05l0 58.92c0,3.11 1.26,4.92 1.73,5.23l386.68 -0.21c-0.45,-0.1 0.8,-1.91 0.8,-5.02l0 -58.92c0,-3.14 -1.26,-4.94 -1.71,-5.26l-385.99 0.21zm386.9 91.41l-387.61 0c-12.79,0 -23.21,-12.31 -23.21,-27.44l0 -58.92c0,-15.15 10.41,-27.47 23.21,-27.47l387.61 0c12.81,0 23.23,12.32 23.23,27.47l0 58.92c0,15.13 -10.42,27.44 -23.23,27.44z"/>
   <path class="fil1" d="M778.06 2846.14c6.38,0.82 12.74,1.62 19.12,2.43 6.85,0.89 6.79,-9.89 0,-10.76 -6.38,-0.8 -12.74,-1.62 -19.12,-2.43 -6.85,-0.87 -6.79,9.89 0,10.76l0 0z"/>
   <path class="fil1" d="M806.19 2761.53c0,3.18 0,6.38 0,9.56 0,6.93 10.76,6.94 10.76,0 0,-3.18 0,-6.38 0,-9.56 0,-6.93 -10.76,-6.93 -10.76,0l0 0z"/>
   <path class="fil1" d="M843.4 2860.18c4.67,-2.6 9.34,-5.19 14,-7.79 6.06,-3.38 0.64,-12.67 -5.42,-9.3 -4.68,2.6 -9.34,5.2 -14,7.8 -6.06,3.36 -0.64,12.66 5.42,9.28l0 0z"/>
   <path class="fil1" d="M788.14 2983.96c5.63,-3.93 11.24,-7.85 16.86,-11.78 5.63,-3.93 0.26,-13.26 -5.44,-9.28 -5.61,3.92 -11.23,7.85 -16.85,11.78 -5.63,3.94 -0.26,13.26 5.42,9.28l0 0z"/>
   <path class="fil1" d="M747.82 2891.45c3.98,1.56 7.98,3.14 11.98,4.7 6.45,2.53 9.25,-7.87 2.86,-10.37 -4,-1.56 -7.99,-3.14 -11.99,-4.7 -6.45,-2.53 -9.24,7.87 -2.85,10.37l0 0z"/>
   <path class="fil1" d="M825.92 2941.4c2.56,0.2 4.08,1.41 5.65,3.31 4.41,5.35 11.99,-2.3 7.61,-7.61 -3.46,-4.18 -7.94,-6.07 -13.26,-6.45 -6.92,-0.5 -6.88,10.26 0,10.75l0 0z"/>
   <path class="fil1" d="M849.51 2992.02c-1.16,7.52 -0.33,13.96 2.63,20.97 2.69,6.35 11.97,0.87 9.3,-5.43 -1.74,-4.11 -2.23,-8.28 -1.55,-12.67 1.05,-6.78 -9.31,-9.7 -10.37,-2.86l0 0z"/>
   <path class="fil1" d="M905.73 2994c3.18,0.84 6.35,1.7 9.53,2.54 6.7,1.78 9.55,-8.59 2.85,-10.37 -3.17,-0.84 -6.35,-1.7 -9.52,-2.54 -6.69,-1.78 -9.56,8.59 -2.86,10.37l0 0z"/>
   <path class="fil1" d="M940.07 2888.24c-0.55,6.11 1.74,11.69 6.45,15.64 5.26,4.44 12.91,-3.12 7.61,-7.61 -2.75,-2.31 -3.61,-4.51 -3.29,-8.04 0.64,-6.89 -10.14,-6.85 -10.76,0l0 0z"/>
   <path class="fil1" d="M926.42 2811.37c-3.12,4.27 -3.68,8.62 -2.78,13.72 1.2,6.81 11.58,3.93 10.37,-2.86 -0.33,-2.17 0.22,-3.97 1.7,-5.42 4.09,-5.59 -5.23,-10.95 -9.3,-5.43l0 0z"/>
   <path class="fil1" d="M985.49 2842.82c0,3.18 0,6.38 0,9.56 0,6.93 10.76,6.93 10.76,0 0,-3.18 0,-6.38 0,-9.56 0,-6.93 -10.76,-6.94 -10.76,0l0 0z"/>
   <path class="fil1" d="M885.37 2825.95c2.38,1.59 4.77,3.18 7.16,4.79 5.78,3.84 11.18,-5.47 5.44,-9.3 -2.4,-1.59 -4.79,-3.18 -7.18,-4.79 -5.77,-3.84 -11.16,5.47 -5.42,9.3l0 0z"/>
   <path class="fil1" d="M903.36 2736.69c2.07,2.42 3.11,4.92 3.34,8.11 0.54,6.86 11.3,6.91 10.76,0 -0.47,-6.17 -2.49,-11.03 -6.5,-15.71 -4.51,-5.27 -12.09,2.36 -7.61,7.61l0 0z"/>
   <path class="fil1" d="M930.51 2704.16c0,4.77 0,9.56 0,14.34 0,6.92 10.76,6.93 10.76,0 0,-4.78 0,-9.57 0,-14.34 0,-6.93 -10.76,-6.94 -10.76,0l0 0z"/>
   <path class="fil1" d="M997.03 2767.35c1.55,1.63 3.1,3.27 4.66,4.9 4.78,5.02 12.38,-2.58 7.61,-7.61 -1.56,-1.63 -3.11,-3.27 -4.66,-4.9 -4.79,-5.02 -12.38,2.59 -7.61,7.61l0 0z"/>
   <path class="fil1" d="M1007.69 2703.25c4.77,0.28 9.54,0.54 14.3,0.82 6.92,0.4 6.9,-10.36 0,-10.76 -4.76,-0.26 -9.53,-0.54 -14.3,-0.82 -6.92,-0.39 -6.89,10.36 0,10.76l0 0z"/>
   <path class="fil1" d="M1022.93 2617.1c3.18,3.2 6.38,6.38 9.56,9.57 4.91,4.9 12.52,-2.71 7.61,-7.61 -3.18,-3.2 -6.38,-6.38 -9.56,-9.57 -4.89,-4.9 -12.52,2.71 -7.61,7.61l0 0z"/>
   <path class="fil1" d="M1064.39 2589.4c0,5.58 0,11.16 0,16.74 0,6.91 10.76,6.93 10.76,0 0,-5.58 0,-11.16 0,-16.74 0,-6.92 -10.76,-6.93 -10.76,0l0 0z"/>
   <path class="fil1" d="M1083.89 2690.08c1.58,-2.41 3.15,-4.8 4.74,-7.21 3.82,-5.79 -5.49,-11.19 -9.3,-5.42 -1.58,2.39 -3.15,4.8 -4.74,7.19 -3.81,5.79 5.49,11.19 9.3,5.44l0 0z"/>
   <path class="fil1" d="M1047.42 2795.72c4,-1.55 7.99,-3.11 12.01,-4.66 6.38,-2.47 3.6,-12.89 -2.86,-10.37 -4,1.55 -7.99,3.11 -12.01,4.66 -6.38,2.49 -3.6,12.89 2.86,10.37l0 0z"/>
   <path class="fil1" d="M1095.04 2780.72c3.98,-0.82 7.96,-1.65 11.94,-2.47 6.78,-1.4 3.9,-11.77 -2.86,-10.37 -3.98,0.83 -7.96,1.65 -11.94,2.47 -6.78,1.41 -3.9,11.79 2.86,10.37l0 0z"/>
   <path class="fil1" d="M1064.39 2830.87c0,0.79 0,1.59 0,2.38 0,6.93 10.76,6.94 10.76,0 0,-0.79 0,-1.59 0,-2.38 0,-6.93 -10.76,-6.94 -10.76,0l0 0z"/>
   <path class="fil1" d="M972.01 2995.59c2.39,-1.59 4.79,-3.2 7.18,-4.78 5.72,-3.82 0.35,-13.14 -5.44,-9.28 -2.39,1.59 -4.78,3.18 -7.18,4.78 -5.72,3.81 -0.35,13.14 5.44,9.29l0 0z"/>
   <path class="fil1" d="M965.73 3035.23c4.29,-4.09 8.88,-6.49 14.65,-7.83 6.74,-1.58 3.89,-11.95 -2.86,-10.37 -7.48,1.74 -13.84,5.3 -19.38,10.6 -5.02,4.8 2.6,12.41 7.59,7.61l0 0z"/>
   <path class="fil1" d="M921.43 3041.71c0.8,1.59 1.62,3.18 2.42,4.76 3.14,6.18 12.44,0.73 9.3,-5.42 -0.82,-1.59 -1.62,-3.18 -2.43,-4.76 -3.14,-6.18 -12.42,-0.73 -9.28,5.42l0 0z"/>
   <path class="fil1" d="M880.46 3053.29c6.03,3.12 11.92,3.91 18.57,2.57 6.78,-1.37 3.92,-11.74 -2.86,-10.37 -3.78,0.76 -6.9,0.26 -10.29,-1.49 -6.12,-3.2 -11.57,6.09 -5.42,9.3l0 0z"/>
   <path class="fil1" d="M969.39 2951.24c7.15,-0.89 14.31,-1.78 21.48,-2.69 6.78,-0.85 6.86,-11.62 0,-10.76 -7.17,0.9 -14.33,1.8 -21.48,2.7 -6.78,0.84 -6.86,11.62 0,10.75l0 0z"/>
   <path class="fil8" d="M1932.91 2479.78c115.8,-104.68 231.59,-209.35 347.38,-314.03 17.15,-15.51 -8.27,-40.8 -25.37,-25.36 -115.78,104.68 -231.58,209.36 -347.37,314.04 -17.15,15.51 8.27,40.8 25.35,25.35l0 0z"/>
   <path class="fil8" d="M2325.49 2639.97c115.8,-104.68 231.59,-209.36 347.38,-314.05 17.15,-15.5 -8.27,-40.8 -25.37,-25.35 -115.78,104.68 -231.58,209.37 -347.36,314.05 -17.15,15.51 8.27,40.8 25.35,25.36l0 0z"/>
   <path class="fil8" d="M1898.91 2758.61c242.69,-236.65 485.38,-473.29 728.07,-709.94 16.54,-16.14 -8.83,-41.49 -25.37,-25.36 -242.67,236.66 -485.36,473.3 -728.06,709.95 -16.55,16.14 8.81,41.48 25.36,25.36l0 0z"/>
   <polygon class="fil2" points="2996.09,1552.92 3011.69,1552.92 3011.69,550.98 2996.09,550.98 "/>
   <path class="fil2" d="M3067.49 1552.92c0,35.13 -28.48,63.6 -63.6,63.6 -35.12,0 -63.6,-28.46 -63.6,-63.6 0,-35.12 28.48,-63.58 63.6,-63.58 35.12,0 63.6,28.46 63.6,63.58z"/>
   <path class="fil2" d="M3004.78 1766.31c-1.05,0 -21.82,-0.21 -36.97,-15.33 -10.11,-10.1 -15.23,-24.12 -15.23,-41.67 0,-4.65 3.76,-8.42 8.41,-8.42 4.65,0 8.41,3.78 8.41,8.42 0,12.92 3.47,22.93 10.3,29.75 10.18,10.15 24.94,10.42 25.08,10.42 23.75,0 43.04,-19.31 43.04,-43.03 0,-23.74 -19.29,-43.03 -43.03,-43.03 -4.65,0 -8.41,-3.78 -8.41,-8.43l0 -46.75c0,-4.66 3.76,-8.43 8.41,-8.43 4.65,0 8.43,3.76 8.43,8.43l0 38.92c29.03,4.11 51.44,29.13 51.44,59.28 0,33.02 -26.85,59.86 -59.87,59.86 0,0 0,0 -0.01,0z"/>
   <path class="fil2" d="M2670.78 1805.46c-3.22,-0.55 -5.88,-3.12 -6.38,-6.54 -0.64,-4.27 2.31,-8.23 6.58,-8.86l344.26 -50.71c4.27,-0.65 8.23,2.31 8.85,6.57 0.64,4.27 -2.31,8.23 -6.58,8.86l-344.26 50.71c-0.84,0.14 -1.67,0.11 -2.47,-0.03z"/>
   <path class="fil2" d="M3331.61 1920.03c-0.78,-0.14 -1.54,-0.39 -2.27,-0.78l-316.56 -165.27c-3.82,-1.99 -5.3,-6.71 -3.31,-10.53 1.99,-3.83 6.69,-5.32 10.52,-3.32l316.57 165.29c3.81,1.99 5.3,6.71 3.31,10.53 -1.62,3.09 -5.01,4.65 -8.26,4.08z"/>
   <path class="fil3" d="M3305.78 2580.9l-843.12 -146.5c-44.16,-7.68 -73.77,-49.71 -66.09,-93.89l84.36 -485.45c7.68,-44.18 49.71,-73.77 93.89,-66.09l843.1 146.5c44.18,7.68 73.77,49.71 66.09,93.88l-84.36 485.46c-7.68,44.16 -49.71,73.77 -93.88,66.09z"/>
   <path class="fil2" d="M2563.33 1799c-35.02,0 -66.12,25.2 -72.31,60.87l-83.32 479.51c-3.36,19.33 1.01,38.8 12.3,54.84 11.3,16.04 28.16,26.72 47.48,30.08l837.19 145.45c39.84,7 77.97,-19.87 84.91,-59.76l83.32 -479.51c3.36,-19.33 -1.01,-38.81 -12.3,-54.84 -11.29,-16.04 -28.16,-26.72 -47.47,-30.08l-837.18 -145.48c-4.23,-0.73 -8.45,-1.08 -12.62,-1.08zm753.95 793.4c-5.38,0 -10.83,-0.46 -16.32,-1.41l-837.16 -145.47c-24.99,-4.34 -46.79,-18.16 -61.4,-38.89 -14.59,-20.75 -20.24,-45.94 -15.89,-70.93l83.32 -479.51c8.96,-51.58 58.23,-86.24 109.8,-77.29l837.17 145.47c25,4.34 46.81,18.15 61.4,38.89 14.59,20.73 20.25,45.92 15.92,70.91l-83.32 479.52c-8.03,46.12 -48.23,78.7 -93.51,78.72z"/>
   <path class="fil7" d="M3299.46 2528.33l-813.11 -141.29c-28.23,-4.9 -47.12,-31.76 -42.23,-59.98l77.03 -443.3c4.91,-28.22 31.76,-47.12 59.99,-42.23l813.11 141.29c28.22,4.91 47.12,31.76 42.22,59.98l-77.03 443.29c-4.9,28.23 -31.76,47.14 -59.98,42.23z"/>
   <path class="fil2" d="M3299.39 2517.4c11.32,1.95 22.76,-0.61 32.15,-7.21 9.41,-6.61 15.67,-16.5 17.62,-27.81l76.38 -439.53c4.07,-23.36 -11.66,-45.69 -35.02,-49.75l-809.31 -140.64c-23.33,-4.03 -45.7,11.66 -49.78,35.03l-76.37 439.51c-1.96,11.33 0.59,22.74 7.22,32.13 6.61,9.41 16.49,15.67 27.82,17.64l809.3 140.63zm7.51 22.17c-3.71,0 -7.45,-0.32 -11.17,-0.97l-809.32 -140.64c-16.98,-2.95 -31.81,-12.34 -41.73,-26.43 -9.93,-14.1 -13.78,-31.22 -10.82,-48.2l76.37 -439.51c6.09,-35.06 39.53,-58.67 74.65,-52.55l809.3 140.63c35.08,6.1 58.66,39.57 52.56,74.64l-76.37 439.5c-2.96,17 -12.35,31.81 -26.45,41.74 -11,7.75 -23.85,11.79 -37.03,11.79z"/>
   <polygon class="fil3" points="2913.72,2461.3 3124.13,2268.47 3240.57,2518.09 "/>
   <path class="fil2" d="M2929.34 2456.74l298.91 51.95 -106.49 -228.3 -192.41 176.35zm323.54 70.78l-354.76 -61.63 228.36 -209.29 126.39 270.92z"/>
   <polygon class="fil3" points="2497.71,2389.02 2870.71,2047.16 3077.14,2489.7 "/>
   <path class="fil2" d="M2513.3 2384.45l551.53 95.84 -196.49 -421.25 -355.04 325.41zm576.17 114.66l-607.36 -105.54 390.96 -358.31 216.4 463.85z"/>
   <path class="fil3" d="M3314.25 2111.97c-4.94,28.38 -31.93,47.4 -60.32,42.46 -28.38,-4.94 -47.39,-31.94 -42.47,-60.32 4.94,-28.38 31.94,-47.39 60.32,-42.46 28.38,4.94 47.4,31.94 42.46,60.32z"/>
   <path class="fil2" d="M3262.77 2058.04c-9.2,0 -18.15,2.81 -25.81,8.21 -9.83,6.92 -16.38,17.25 -18.44,29.09 -2.05,11.84 0.64,23.76 7.54,33.6 6.92,9.82 17.26,16.37 29.1,18.42 11.75,2.06 23.75,-0.61 33.58,-7.54 9.83,-6.92 16.38,-17.25 18.44,-29.09l0 0c4.25,-24.44 -12.19,-47.77 -36.63,-52.02 -2.6,-0.46 -5.2,-0.68 -7.79,-0.68zm0.21 104.34c-3.4,0 -6.85,-0.29 -10.29,-0.88 -32.23,-5.6 -53.89,-36.38 -48.28,-68.61 2.71,-15.63 11.34,-29.25 24.31,-38.37 12.93,-9.12 28.66,-12.66 44.3,-9.95 15.6,2.71 29.24,11.34 38.35,24.3 9.12,12.96 12.64,28.7 9.93,44.32 -2.69,15.62 -11.33,29.24 -24.3,38.37 -10.1,7.11 -21.91,10.81 -34.02,10.81z"/>
   <polygon class="fil7" points="2867,603.32 3648.86,603.32 3648.86,517.28 2867,517.28 "/>
   <path class="fil9" d="M4094.44 2270.41l208.22 0 0 -2243.6 -208.22 0 0 2243.6zm233.89 25.69l-259.56 0 0 -2294.95 259.56 0 0 2294.95z"/>
   <path class="fil2" d="M4098.03 227.03l201.03 0 0 -201.02 -201.03 0 0 201.02zm227.05 26.01l-253.05 0 0 -253.05 253.05 0 0 253.05z"/>
   <polygon class="fil2" points="4302.87,249.23 4075.83,22.2 4094.23,3.8 4321.26,230.85 "/>
   <polygon class="fil2" points="4094.23,249.23 4075.83,230.85 4302.87,3.8 4321.26,22.2 "/>
   <path class="fil2" d="M4098.03 454.07l201.03 0 0 -201.02 -201.03 0 0 201.02zm227.05 26.01l-253.05 0 0 -253.05 253.05 0 0 253.05z"/>
   <polygon class="fil2" points="4302.87,476.27 4075.83,249.23 4094.23,230.85 4321.26,457.88 "/>
   <polygon class="fil2" points="4094.23,476.27 4075.83,457.88 4302.87,230.85 4321.26,249.23 "/>
   <path class="fil9" d="M4098.03 681.11l201.03 0 0 -201.03 -201.03 0 0 201.03zm227.05 26l-253.05 0 0 -253.05 253.05 0 0 253.05z"/>
   <polygon class="fil9" points="4302.87,703.31 4075.83,476.27 4094.23,457.88 4321.26,684.92 "/>
   <polygon class="fil9" points="4094.23,703.31 4075.83,684.92 4302.87,457.88 4321.26,476.27 "/>
   <path class="fil9" d="M4098.03 908.15l201.03 0 0 -201.03 -201.03 0 0 201.03zm227.05 26.02l-253.05 0 0 -253.05 253.05 0 0 253.05z"/>
   <polygon class="fil9" points="4302.87,930.35 4075.83,703.31 4094.23,684.92 4321.26,911.95 "/>
   <polygon class="fil9" points="4094.23,930.35 4075.83,911.95 4302.87,684.92 4321.26,703.31 "/>
   <path class="fil9" d="M4098.03 1135.18l201.03 0 0 -201.02 -201.03 0 0 201.02zm227.05 26.02l-253.05 0 0 -253.05 253.05 0 0 253.05z"/>
   <polygon class="fil9" points="4302.87,1157.38 4075.83,930.35 4094.23,911.95 4321.26,1139 "/>
   <polygon class="fil9" points="4094.23,1157.38 4075.83,1139 4302.87,911.95 4321.26,930.35 "/>
   <path class="fil9" d="M4098.03 1362.22l201.03 0 0 -201.03 -201.03 0 0 201.03zm227.05 26.01l-253.05 0 0 -253.05 253.05 0 0 253.05z"/>
   <polygon class="fil9" points="4302.87,1384.43 4075.83,1157.38 4094.23,1139 4321.26,1366.03 "/>
   <polygon class="fil9" points="4094.23,1384.43 4075.83,1366.03 4302.87,1139 4321.26,1157.38 "/>
   <path class="fil9" d="M4098.03 1589.26l201.03 0 0 -201.03 -201.03 0 0 201.03zm227.05 26.02l-253.05 0 0 -253.05 253.05 0 0 253.05z"/>
   <polygon class="fil9" points="4302.87,1611.46 4075.83,1384.43 4094.23,1366.03 4321.26,1593.06 "/>
   <polygon class="fil9" points="4094.23,1611.46 4075.83,1593.06 4302.87,1366.03 4321.26,1384.43 "/>
   <path class="fil9" d="M4098.03 1816.29l201.03 0 0 -201.02 -201.03 0 0 201.02zm227.05 26.02l-253.05 0 0 -253.05 253.05 0 0 253.05z"/>
   <polygon class="fil9" points="4302.87,1838.49 4075.83,1611.46 4094.23,1593.06 4321.26,1820.11 "/>
   <polygon class="fil9" points="4094.23,1838.49 4075.83,1820.11 4302.87,1593.06 4321.26,1611.46 "/>
   <path class="fil9" d="M4098.03 2043.32l201.03 0 0 -201.01 -201.03 0 0 201.01zm227.05 26.02l-253.05 0 0 -253.05 253.05 0 0 253.05z"/>
   <polygon class="fil9" points="4302.87,2065.54 4075.83,1838.49 4094.23,1820.11 4321.26,2047.14 "/>
   <polygon class="fil9" points="4094.23,2065.54 4075.83,2047.14 4302.87,1820.11 4321.26,1838.49 "/>
   <path class="fil9" d="M4098.03 2270.37l201.03 0 0 -201.03 -201.03 0 0 201.03zm227.05 26l-253.05 0 0 -253.05 253.05 0 0 253.05z"/>
   <polygon class="fil9" points="4302.87,2292.57 4075.83,2065.54 4094.23,2047.14 4321.26,2274.17 "/>
   <polygon class="fil9" points="4094.23,2292.57 4075.83,2274.17 4302.87,2047.14 4321.26,2065.54 "/>
   <path class="fil2" d="M4549.8 450.65l201.02 0 0 -201.03 -201.02 0 0 201.03zm227.03 26.02l-253.05 0 0 -253.05 253.05 0 0 253.05z"/>
   <polygon class="fil2" points="4545.99,472.85 4527.59,454.45 4754.62,227.42 4773.03,245.81 "/>
   <polygon class="fil2" points="4754.62,472.85 4527.59,245.81 4545.99,227.42 4773.03,454.45 "/>
   <path class="fil2" d="M4322.76 450.65l201.03 0 0 -201.03 -201.03 0 0 201.03zm227.05 26.02l-253.05 0 0 -253.05 253.05 0 0 253.05z"/>
   <polygon class="fil2" points="4318.95,472.85 4300.56,454.45 4527.59,227.42 4545.99,245.81 "/>
   <polygon class="fil2" points="4527.59,472.85 4300.56,245.81 4318.95,227.42 4545.99,454.45 "/>
   <path class="fil2" d="M4095.72 450.65l201.03 0 0 -201.03 -201.03 0 0 201.03zm227.03 26.02l-253.05 0 0 -253.05 253.05 0 0 253.05z"/>
   <path class="fil2" d="M3868.69 450.65l201.02 0 0 -201.03 -201.02 0 0 201.03zm227.03 26.02l-253.05 0 0 -253.05 253.05 0 0 253.05z"/>
   <polygon class="fil2" points="3864.87,472.85 3846.49,454.45 4073.52,227.42 4091.91,245.81 "/>
   <polygon class="fil2" points="4073.52,472.85 3846.49,245.81 3864.87,227.42 4091.91,454.45 "/>
   <path class="fil2" d="M3641.64 450.65l201.03 0 0 -201.03 -201.03 0 0 201.03zm227.05 26.02l-253.05 0 0 -253.05 253.05 0 0 253.05z"/>
   <polygon class="fil2" points="3637.84,472.85 3619.44,454.45 3846.49,227.42 3864.87,245.81 "/>
   <polygon class="fil2" points="3846.49,472.85 3619.44,245.81 3637.84,227.42 3864.87,454.45 "/>
   <path class="fil2" d="M3414.61 450.65l201.03 0 0 -201.03 -201.03 0 0 201.03zm227.03 26.02l-253.05 0 0 -253.05 253.05 0 0 253.05z"/>
   <path class="fil2" d="M3401.61 476.67l-227.05 0c-5.25,0 -10,-3.17 -12.01,-8.04 -2.02,-4.85 -0.9,-10.46 2.82,-14.18l227.03 -227.03 18.4 18.4 -204.85 204.83 190.26 0 223.23 -223.23 18.4 18.4 -227.03 227.03c-2.45,2.43 -5.76,3.82 -9.2,3.82z"/>
   <polygon class="fil2" points="3619.44,472.85 3392.41,245.81 3410.81,227.42 3637.84,454.45 "/>
   <path class="fil9" d="M4095.5 2523.13l206.65 0 0 -201.03 -206.65 0 0 201.03zm233.38 26.01l-260.12 0 0 -253.04 260.12 0 0 253.04z"/>
   <polygon class="fil9" points="4306.06,2545.33 4072.69,2318.3 4091.59,2299.9 4324.97,2526.93 "/>
   <polygon class="fil9" points="4091.59,2545.33 4072.69,2526.93 4306.06,2299.9 4324.97,2318.3 "/>
   <path class="fil9" d="M4095.5 3431.28l206.65 0 0 -201.03 -206.65 0 0 201.03zm233.38 26l-260.12 0 0 -253.04 260.12 0 0 253.04z"/>
   <polygon class="fil9" points="4306.06,3453.48 4072.69,3226.44 4091.59,3208.05 4324.97,3435.08 "/>
   <polygon class="fil9" points="4091.59,3453.48 4072.69,3435.08 4306.06,3208.05 4324.97,3226.44 "/>
   <path class="fil9" d="M4095.5 2728.66l206.65 0 0 -201.03 -206.65 0 0 201.03zm233.38 26l-260.12 0 0 -253.05 260.12 0 0 253.05z"/>
   <polygon class="fil9" points="4306.06,2750.86 4072.69,2523.81 4091.59,2505.43 4324.97,2732.46 "/>
   <polygon class="fil9" points="4091.59,2750.86 4072.69,2732.46 4306.06,2505.43 4324.97,2523.81 "/>
   <path class="fil9" d="M4095.5 2955.69l206.65 0 0 -201.03 -206.65 0 0 201.03zm233.38 26l-260.12 0 0 -253.04 260.12 0 0 253.04z"/>
   <polygon class="fil9" points="4306.06,2977.89 4072.69,2750.86 4091.59,2732.46 4324.97,2959.49 "/>
   <polygon class="fil9" points="4091.59,2977.89 4072.69,2959.49 4306.06,2732.46 4324.97,2750.86 "/>
   <path class="fil9" d="M4095.5 3182.72l206.65 0 0 -201.03 -206.65 0 0 201.03zm233.38 26l-260.12 0 0 -253.04 260.12 0 0 253.04z"/>
   <polygon class="fil9" points="4306.06,3204.92 4072.69,2977.89 4091.59,2959.49 4324.97,3186.53 "/>
   <polygon class="fil9" points="4091.59,3204.92 4072.69,3186.53 4306.06,2959.49 4324.97,2977.89 "/>
   <path class="fil2" d="M1425.99 1377c27.69,0 27.74,-43.03 0,-43.03 -27.69,0 -27.74,43.03 0,43.03l0 0z"/>
   <path class="fil2" d="M3759.37 927.54c27.69,0 27.74,-43.03 0,-43.03 -27.69,0 -27.74,43.03 0,43.03l0 0z"/>
   <path class="fil2" d="M4725.23 2445.66c3.2,0 6.38,0 9.57,0l-9.57 0z"/>
   <path class="fil2" d="M4725.23 2467.18c3.2,0 6.38,0 9.57,0 11.24,0 22.03,-9.89 21.51,-21.53 -0.51,-11.64 -9.45,-21.51 -21.51,-21.51 -3.2,0 -6.38,0 -9.57,0 -11.24,0 -22.03,9.89 -21.51,21.51 0.51,11.66 9.45,21.53 21.51,21.53l0 0z"/>
   <path class="fil2" d="M574.89 2782.76c27.69,0 27.74,-43.03 0,-43.03 -27.69,0 -27.74,43.03 0,43.03l0 0z"/>
   <path class="fil2" d="M2630.93 717.16c27.69,0 27.73,-43.05 0,-43.05 -27.69,0 -27.73,43.05 0,43.05l0 0z"/>
  </g>
 </g>
</svg>
